<svg xmlns="http://www.w3.org/2000/svg" width="17" height="21" viewBox="0 0 17 21">
  <path id="Apple_logo" data-name="Apple logo" d="M5.42,21C4.135,21,3.162,19.742,2.2,18.341A13.269,13.269,0,0,1,.172,13.279a8.35,8.35,0,0,1,.7-5.519,5.336,5.336,0,0,1,1.836-1.9,4.9,4.9,0,0,1,2.481-.728h.053a5.793,5.793,0,0,1,2.1.541,3.952,3.952,0,0,0,1.293.374,4.027,4.027,0,0,0,1.25-.368,6.721,6.721,0,0,1,2.414-.61,3.294,3.294,0,0,1,.332.017,4.833,4.833,0,0,1,3.817,2.08l-.017.01A4.71,4.71,0,0,0,14.2,11.159a4.625,4.625,0,0,0,2.8,4.244l.005,0-.007.021a11.574,11.574,0,0,1-1.439,2.966c-.814,1.2-1.736,2.552-3.195,2.579H12.3a3.578,3.578,0,0,1-1.553-.393,4.15,4.15,0,0,0-1.83-.441,4.41,4.41,0,0,0-1.92.455,3.945,3.945,0,0,1-1.5.4ZM8.685,4.848c-.071,0-.142,0-.212-.008A4.395,4.395,0,0,1,9.582,1.591,4.658,4.658,0,0,1,12.656,0,4.659,4.659,0,0,1,11.57,3.354,3.916,3.916,0,0,1,8.685,4.848Z" fill="#fff"/>
</svg>
