<svg xmlns="http://www.w3.org/2000/svg" width="50" height="50" viewBox="0 0 50 50">
  <g id="Group_3286" data-name="Group 3286" transform="translate(0.075)">
    <rect id="Rectangle_12051" data-name="Rectangle 12051" width="50" height="50" rx="10" transform="translate(-0.075)" fill="#fff" opacity="0.1"/>
    <path id="twitter" d="M7.291,14.187A13.06,13.06,0,0,0,20.673,1.25q0-.3-.013-.588a9.4,9.4,0,0,0,2.346-2.355,9.636,9.636,0,0,1-2.7.716,4.6,4.6,0,0,0,2.068-2.515,9.631,9.631,0,0,1-2.986,1.1,4.774,4.774,0,0,0-3.433-1.436A4.628,4.628,0,0,0,11.25.722a4.4,4.4,0,0,0,.122,1.037A13.51,13.51,0,0,1,1.677-2.992,4.421,4.421,0,0,0,1.04-.706,4.506,4.506,0,0,0,3.133,3.078,4.789,4.789,0,0,1,1,2.51c0,.019,0,.038,0,.058A4.59,4.59,0,0,0,4.776,7.025a4.873,4.873,0,0,1-1.24.16A4.829,4.829,0,0,1,2.652,7.1a4.691,4.691,0,0,0,4.394,3.158A9.643,9.643,0,0,1,1.2,12.207a9.9,9.9,0,0,1-1.122-.063,13.647,13.647,0,0,0,7.209,2.043" transform="translate(13.345 19.708)" fill="#ededed"/>
  </g>
</svg>
