<svg xmlns="http://www.w3.org/2000/svg" width="50" height="50" viewBox="0 0 50 50">
  <g id="Group_3285" data-name="Group 3285" transform="translate(0.001)">
    <rect id="Rectangle_12052" data-name="Rectangle 12052" width="50" height="50" rx="10" transform="translate(-0.001)" fill="#fff" opacity="0.1"/>
    <g id="Instagram" transform="translate(14.327 14.554)">
      <path id="Subtraction_24" data-name="Subtraction 24" d="M15.012,20.731H5.719A5.725,5.725,0,0,1,0,15.013V5.719A5.725,5.725,0,0,1,5.719,0h9.293a5.725,5.725,0,0,1,5.719,5.719v9.294A5.725,5.725,0,0,1,15.012,20.731ZM10.366,5.186a5.18,5.18,0,1,0,5.179,5.18A5.185,5.185,0,0,0,10.366,5.186ZM15.71,3.74a1.331,1.331,0,1,0,1.331,1.331A1.333,1.333,0,0,0,15.71,3.74Zm-5.344,9.79a3.165,3.165,0,1,1,3.165-3.165A3.169,3.169,0,0,1,10.366,13.531Z" transform="translate(0 0)" fill="#ededed"/>
    </g>
  </g>
</svg>
