<svg xmlns="http://www.w3.org/2000/svg" width="50" height="50" viewBox="0 0 50 50">
  <g id="Group_55196" data-name="Group 55196" transform="translate(0.148)">
    <rect id="Rectangle_12051" data-name="Rectangle 12051" width="50" height="50" rx="10" transform="translate(-0.148)" fill="#fff" opacity="0.1"/>
    <path id="Path_200943" data-name="Path 200943" d="M41.553,61.631V49.349H37.471V61.631h4.083Zm-2.04-13.959a2.284,2.284,0,1,0-.027,0h.026Zm4.3,13.959h4.082V54.773a2.8,2.8,0,0,1,.134-1,2.234,2.234,0,0,1,2.095-1.493c1.477,0,2.068,1.126,2.068,2.777v6.57h4.082V54.589c0-3.772-2.014-5.528-4.7-5.528a4.067,4.067,0,0,0-3.706,2.069h.027V49.349H43.813c.053,1.152,0,12.282,0,12.282Z" transform="translate(-21.467 -27.665)" fill="#fff"/>
  </g>
</svg>
