<svg xmlns="http://www.w3.org/2000/svg" width="50" height="50" viewBox="0 0 50 50">
  <g id="Group_55197" data-name="Group 55197" transform="translate(0.222)">
    <rect id="Rectangle_12051" data-name="Rectangle 12051" width="50" height="50" rx="10" transform="translate(-0.222)" fill="#fff" opacity="0.1"/>
    <path id="Path_200944" data-name="Path 200944" d="M9.412-24.338q-1.982,0-1.982,1.727v1.387H10.6V-17.8H7.43V-7.576H3.1V-17.8H.663v-3.426H3.1v-1.331a6.178,6.178,0,0,1,.481-2.562,3.533,3.533,0,0,1,1.274-1.571,5.975,5.975,0,0,1,1.586-.736,6.052,6.052,0,0,1,1.671-.227,8.443,8.443,0,0,1,2.492.311v3.086q-.142,0-.552-.042T9.412-24.338Z" transform="translate(19.248 42.584)" fill="#fff"/>
  </g>
</svg>
