<svg xmlns="http://www.w3.org/2000/svg" width="60" height="60" viewBox="0 0 60 60">
  <g id="Group_3285" data-name="Group 3285" transform="translate(0)">
    <rect id="Rectangle_12052" data-name="Rectangle 12052" width="60" height="60" rx="30" transform="translate(0)" fill="#15a05d"/>
    <g id="Instagram" transform="translate(17.27 17.543)">
      <path id="Subtraction_24" data-name="Subtraction 24" d="M18.095,24.988H6.893A6.9,6.9,0,0,1,0,18.1V6.893A6.9,6.9,0,0,1,6.893,0h11.2a6.9,6.9,0,0,1,6.893,6.893V18.1A6.9,6.9,0,0,1,18.095,24.988Zm-5.6-18.737a6.243,6.243,0,1,0,6.242,6.243A6.25,6.25,0,0,0,12.494,6.251Zm6.442-1.742a1.6,1.6,0,1,0,1.6,1.6A1.607,1.607,0,0,0,18.936,4.509Zm-6.442,11.8a3.815,3.815,0,1,1,3.814-3.815A3.82,3.82,0,0,1,12.494,16.31Z" transform="translate(0 0)" fill="#ededed"/>
    </g>
  </g>
</svg>
