<svg id="Group_55192" data-name="Group 55192" xmlns="http://www.w3.org/2000/svg" width="60" height="60.612" viewBox="0 0 60 60.612">
  <rect id="Rectangle_12382" data-name="Rectangle 12382" width="60" height="60.612" rx="30" fill="#b7e2cd"/>
  <g id="award4" transform="translate(14.321 14.333)">
    <g id="Group_55194" data-name="Group 55194">
      <g id="Group_55193" data-name="Group 55193">
        <path id="Path_200941" data-name="Path 200941" d="M16,.333a4.589,4.589,0,0,1-2.227-.547L7.466-3.853C4.853-5.613,4.68-5.933,4.68-8.693v-6.613c0-2.76.173-3.08,2.733-4.8l6.373-3.68a4.755,4.755,0,0,1,4.44,0l6.307,3.64c2.613,1.76,2.787,2.08,2.787,4.84v6.613c0,2.76-.173,3.08-2.733,4.8L18.213-.213A4.4,4.4,0,0,1,16,.333Zm0-22.667a2.526,2.526,0,0,0-1.227.28l-6.307,3.64C6.68-17.2,6.68-17.2,6.68-15.307v6.613c0,1.893,0,1.893,1.853,3.147l6.253,3.6a2.8,2.8,0,0,0,2.44,0l6.307-3.64C25.32-6.8,25.32-6.8,25.32-8.693v-6.613c0-1.893,0-1.893-1.853-3.147l-6.253-3.6A2.437,2.437,0,0,0,16-22.333Zm7.334,3.507a1.007,1.007,0,0,1-1-1v-3.507c0-2.107-.893-3-3-3H12.667c-2.107,0-3,.893-3,3v3.413a1.007,1.007,0,0,1-1,1,1,1,0,0,1-1-1v-3.413c0-3.227,1.773-5,5-5h6.667c3.227,0,5,1.773,5,5v3.507A1.007,1.007,0,0,1,23.333-18.827ZM18.174-6.493a2.282,2.282,0,0,1-.867-.173L16-7.173l-1.307.52a2.024,2.024,0,0,1-1.96-.173A2.045,2.045,0,0,1,11.96-8.64l.08-1.4-.893-1.08a2.031,2.031,0,0,1-.427-1.933,2.012,2.012,0,0,1,1.48-1.293l1.36-.347.76-1.187a1.962,1.962,0,0,1,3.373,0l.76,1.187,1.36.347a2.012,2.012,0,0,1,1.48,1.293,2.048,2.048,0,0,1-.44,1.92l-.893,1.08.08,1.4a2.06,2.06,0,0,1-.773,1.813,1.87,1.87,0,0,1-1.093.347ZM12.694-12.4l.893,1.08a2.128,2.128,0,0,1,.453,1.4l-.08,1.4,1.307-.52a2.133,2.133,0,0,1,1.467,0l1.307.52-.08-1.4a2.152,2.152,0,0,1,.453-1.4l.893-1.08-1.36-.347A2.2,2.2,0,0,1,16.76-13.6l-.747-1.173-.76,1.173a2.156,2.156,0,0,1-1.187.867l-1.373.333Z" transform="translate(0 30)" fill="#212121"/>
      </g>
    </g>
  </g>
</svg>
