<svg id="Group_55189" data-name="Group 55189" xmlns="http://www.w3.org/2000/svg" width="60" height="60.612" viewBox="0 0 60 60.612">
  <rect id="Rectangle_12382" data-name="Rectangle 12382" width="60" height="60.612" rx="30" fill="#b7e2cd"/>
  <g id="send-sqaure-2" transform="translate(14.332 14.333)">
    <g id="Group_55191" data-name="Group 55191">
      <g id="Group_55190" data-name="Group 55190">
        <path id="Path_200940" data-name="Path 200940" d="M20,.333H12C4.76.333,1.667-2.76,1.667-10v-8C1.667-25.24,4.76-28.333,12-28.333h8c7.24,0,10.333,3.093,10.333,10.333v8C30.333-2.76,27.24.333,20,.333ZM12-26.333c-6.147,0-8.333,2.187-8.333,8.333v8c0,6.147,2.187,8.333,8.333,8.333h8c6.147,0,8.333-2.187,8.333-8.333v-8c0-6.147-2.187-8.333-8.333-8.333Zm7.773,13.24a1.007,1.007,0,0,1-1-1v-4.653H14.12a1.007,1.007,0,0,1-1-1,1.007,1.007,0,0,1,1-1h5.653a1.007,1.007,0,0,1,1,1v5.653A1.007,1.007,0,0,1,19.773-13.093Zm-7.547,1.88a.989.989,0,0,1-.707-.293,1.006,1.006,0,0,1,0-1.413l7.547-7.547a1.006,1.006,0,0,1,1.413,0,1.006,1.006,0,0,1,0,1.413l-7.547,7.547a.967.967,0,0,1-.707.293ZM16-5.693A26.387,26.387,0,0,1,7.681-7.04a1,1,0,0,1-.627-1.267.993.993,0,0,1,1.267-.627,24.444,24.444,0,0,0,15.373,0,1,1,0,0,1,1.267.627,1,1,0,0,1-.627,1.267A26.154,26.154,0,0,1,16-5.693Z" transform="translate(0 30)" fill="#212121"/>
      </g>
    </g>
  </g>
</svg>
