<svg id="Group_55187" data-name="Group 55187" xmlns="http://www.w3.org/2000/svg" width="60" height="60.612" viewBox="0 0 60 60.612">
  <rect id="Rectangle_12382" data-name="Rectangle 12382" width="60" height="60.612" rx="30" fill="#b7e2cd"/>
  <g id="profile-2user" transform="translate(13.867 14.333)">
    <g id="Group_55188" data-name="Group 55188">
      <g id="Group_55187-2" data-name="Group 55187">
        <path id="Path_200939" data-name="Path 200939" d="M12.214-14.507h-.107a.723.723,0,0,0-.24,0,6.89,6.89,0,0,1-6.787-6.907A6.931,6.931,0,0,1,12-28.333a6.931,6.931,0,0,1,6.92,6.92,6.9,6.9,0,0,1-6.667,6.907h-.04ZM12-26.333a4.934,4.934,0,0,0-4.92,4.92,4.885,4.885,0,0,0,4.733,4.907,2.218,2.218,0,0,1,.427,0,4.912,4.912,0,0,0,4.68-4.907A4.934,4.934,0,0,0,12-26.333Zm10.053,12a.369.369,0,0,1-.12-.013,1.056,1.056,0,0,1-1.16-.88.972.972,0,0,1,.827-1.107c.16-.013.333-.013.48-.013a3.662,3.662,0,0,0,3.467-3.667,3.665,3.665,0,0,0-3.667-3.667.987.987,0,0,1-1-.987,1.007,1.007,0,0,1,1-1A5.679,5.679,0,0,1,27.547-20a5.654,5.654,0,0,1-5.453,5.667h-.04ZM12.226.067A13.17,13.17,0,0,1,5-1.933,5.722,5.722,0,0,1,2.133-6.667,5.781,5.781,0,0,1,5-11.427a14.117,14.117,0,0,1,14.453,0,5.752,5.752,0,0,1,2.867,4.733,5.781,5.781,0,0,1-2.867,4.76,13.2,13.2,0,0,1-7.227,2ZM6.106-9.747A3.834,3.834,0,0,0,4.133-6.653,3.825,3.825,0,0,0,6.106-3.587a12.049,12.049,0,0,0,12.24,0A3.834,3.834,0,0,0,20.319-6.68a3.825,3.825,0,0,0-1.973-3.067,12.111,12.111,0,0,0-12.24,0ZM24.454-2.333a.984.984,0,0,1-.973-.8,1.014,1.014,0,0,1,.773-1.187,5.4,5.4,0,0,0,2.213-.973A2.608,2.608,0,0,0,27.64-7.347a2.586,2.586,0,0,0-1.16-2.04,5.582,5.582,0,0,0-2.187-.973,1.008,1.008,0,0,1-.76-1.2,1.008,1.008,0,0,1,1.2-.76,7.441,7.441,0,0,1,2.96,1.333,4.586,4.586,0,0,1,1.947,3.64,4.644,4.644,0,0,1-1.96,3.653A7.222,7.222,0,0,1,24.667-2.36.624.624,0,0,1,24.454-2.333Z" transform="translate(0 30)" fill="#212121"/>
      </g>
    </g>
  </g>
</svg>
