<svg xmlns="http://www.w3.org/2000/svg" xmlns:xlink="http://www.w3.org/1999/xlink" width="1280" height="1508" viewBox="0 0 1280 1508">
  <defs>
    <clipPath id="clip-path">
      <rect id="Rectangle_11537" data-name="Rectangle 11537" width="366" height="357" rx="50" transform="translate(563.5 2281.5)" fill="#a5a5a5" stroke="#707070" stroke-width="1"/>
    </clipPath>
  </defs>
  <g id="Group_55151" data-name="Group 55151" transform="translate(-320 -1994)">
    <g id="Group_55148" data-name="Group 55148" transform="translate(0 -30)">
      <g id="Group_55143" data-name="Group 55143" transform="translate(746 242)">
        <rect id="Rectangle_11481" data-name="Rectangle 11481" width="534" height="624" rx="47" transform="translate(320 1942)" fill="#111"/>
        <g id="Mask_Group_28" data-name="Mask Group 28" transform="translate(-75.5 -72.5)" clip-path="url(#clip-path)">
          <g id="XMLID_1017_" transform="matrix(0.966, 0.259, -0.259, 0.966, 598.954, 2288.28)" opacity="0.4">
            <g id="XMLID_1278_" transform="translate(54 0)">
              <path id="XMLID_1303_" d="M345.652,202.994H311.821a79.567,79.567,0,0,0-79.477,79.477v30.765L210.93,334.651V158.062a79.261,79.261,0,0,0,67.793-103.8,7.4,7.4,0,0,0-14.053,4.658A64.325,64.325,0,1,1,222.68,17.7a7.4,7.4,0,0,0,4.4-14.137,79.213,79.213,0,1,0-30.954,154.5V270.822l-21.414-21.413V218.645a79.567,79.567,0,0,0-79.477-79.477H61.4a7.4,7.4,0,0,0-7.4,7.4V180.4a79.567,79.567,0,0,0,79.477,79.477h30.765l31.883,31.882V364.2H121.982a7.4,7.4,0,1,0,0,14.8h163.09a7.4,7.4,0,1,0,0-14.8H210.93v-8.607l31.883-31.883h30.764a79.567,79.567,0,0,0,79.477-79.477V210.4A7.4,7.4,0,0,0,345.652,202.994ZM133.477,245.072A64.746,64.746,0,0,1,68.8,180.4V153.971H95.233a64.746,64.746,0,0,1,64.673,64.673V234.6l-32.689-32.69a7.4,7.4,0,0,0-10.469,10.469l32.69,32.69Zm204.773-.844A64.746,64.746,0,0,1,273.577,308.9H257.618l32.69-32.689a7.4,7.4,0,0,0-10.469-10.469l-32.69,32.69v-15.96A64.746,64.746,0,0,1,311.821,217.8H338.25Z" transform="translate(-54 0)" fill="#fff"/>
              <path id="XMLID_1306_" d="M321.782,43a7.406,7.406,0,1,0-5.233-2.17A7.456,7.456,0,0,0,321.782,43Z" transform="translate(-121.638 -7.325)" fill="#fff"/>
              <path id="Path_23465" data-name="Path 23465" d="M15.821,12.427A6.061,6.061,0,0,1,11.2,10.6,6.84,6.84,0,0,1,9.473,5.694V-10.37H6.2a5.16,5.16,0,0,1-3.655-1.251A4.372,4.372,0,0,1,1.2-14.988a4.221,4.221,0,0,1,1.347-3.319,5.288,5.288,0,0,1,3.655-1.2H9.473v-6.06H6.2a5.16,5.16,0,0,1-3.655-1.25A4.372,4.372,0,0,1,1.2-30.186,4.221,4.221,0,0,1,2.547-33.5a5.288,5.288,0,0,1,3.655-1.2H9.473V-50a7.349,7.349,0,0,1,1.78-5.194A6.537,6.537,0,0,1,16.3-57.12a7.466,7.466,0,0,1,4.473,1.347,8.767,8.767,0,0,1,2.934,4.521L34.964-20.278V-50.387a6.84,6.84,0,0,1,1.731-4.906,6.183,6.183,0,0,1,4.713-1.828,6.061,6.061,0,0,1,4.617,1.828,6.84,6.84,0,0,1,1.731,4.906v15.679h3.367a5.288,5.288,0,0,1,3.655,1.2,4.221,4.221,0,0,1,1.347,3.319,4.372,4.372,0,0,1-1.347,3.367,5.16,5.16,0,0,1-3.655,1.25H47.757v6.06h3.367a5.288,5.288,0,0,1,3.655,1.2,4.221,4.221,0,0,1,1.347,3.319,4.372,4.372,0,0,1-1.347,3.367,5.16,5.16,0,0,1-3.655,1.251H47.757V5.309A7.475,7.475,0,0,1,46.026,10.5a6.26,6.26,0,0,1-4.906,1.924A7.847,7.847,0,0,1,36.5,11.08a8.623,8.623,0,0,1-2.982-4.521L22.266-24.318V5.694A6.958,6.958,0,0,1,20.583,10.6,6.15,6.15,0,0,1,15.821,12.427Z" transform="translate(120.864 101.646)" fill="#fff" stroke="rgba(0,0,0,0)" stroke-width="1"/>
            </g>
          </g>
        </g>
        <text id="Vighocredit" transform="translate(370 1992)" fill="#fff" font-size="40" font-family="Montserrat-ExtraBold, Montserrat" font-weight="800"><tspan x="0" y="39">Vighocredit</tspan></text>
        <text id="Access_credit_facility_for_daily_food_purchase._" data-name="Access credit facility for daily food purchase. " transform="translate(370 2065)" fill="#fff" font-size="40" font-family="Montserrat-ExtraBold, Montserrat" font-weight="800" opacity="0.67"><tspan x="0" y="39">Access credit </tspan><tspan x="0" y="88">facility for daily </tspan><tspan x="0" y="137">food purchase. </tspan></text>
      </g>
      <g id="Group_55145" data-name="Group 55145" transform="translate(746 966)">
        <rect id="Rectangle_11481-2" data-name="Rectangle 11481" width="534" height="624" rx="47" transform="translate(320 1942)" fill="#15a05d"/>
        <g id="Mask_Group_28-2" data-name="Mask Group 28" transform="translate(-75.5 -72.5)" clip-path="url(#clip-path)">
          <g id="XMLID_1017_2" data-name="XMLID_1017_" transform="matrix(0.966, 0.259, -0.259, 0.966, 598.954, 2288.28)" opacity="0.4">
            <g id="XMLID_1278_2" data-name="XMLID_1278_" transform="translate(54 0)">
              <path id="XMLID_1303_2" data-name="XMLID_1303_" d="M345.652,202.994H311.821a79.567,79.567,0,0,0-79.477,79.477v30.765L210.93,334.651V158.062a79.261,79.261,0,0,0,67.793-103.8,7.4,7.4,0,0,0-14.053,4.658A64.325,64.325,0,1,1,222.68,17.7a7.4,7.4,0,0,0,4.4-14.137,79.213,79.213,0,1,0-30.954,154.5V270.822l-21.414-21.413V218.645a79.567,79.567,0,0,0-79.477-79.477H61.4a7.4,7.4,0,0,0-7.4,7.4V180.4a79.567,79.567,0,0,0,79.477,79.477h30.765l31.883,31.882V364.2H121.982a7.4,7.4,0,1,0,0,14.8h163.09a7.4,7.4,0,1,0,0-14.8H210.93v-8.607l31.883-31.883h30.764a79.567,79.567,0,0,0,79.477-79.477V210.4A7.4,7.4,0,0,0,345.652,202.994ZM133.477,245.072A64.746,64.746,0,0,1,68.8,180.4V153.971H95.233a64.746,64.746,0,0,1,64.673,64.673V234.6l-32.689-32.69a7.4,7.4,0,0,0-10.469,10.469l32.69,32.69Zm204.773-.844A64.746,64.746,0,0,1,273.577,308.9H257.618l32.69-32.689a7.4,7.4,0,0,0-10.469-10.469l-32.69,32.69v-15.96A64.746,64.746,0,0,1,311.821,217.8H338.25Z" transform="translate(-54 0)" fill="#fff"/>
              <path id="XMLID_1306_2" data-name="XMLID_1306_" d="M321.782,43a7.406,7.406,0,1,0-5.233-2.17A7.456,7.456,0,0,0,321.782,43Z" transform="translate(-121.638 -7.325)" fill="#fff"/>
              <path id="Path_23465-2" data-name="Path 23465" d="M15.821,12.427A6.061,6.061,0,0,1,11.2,10.6,6.84,6.84,0,0,1,9.473,5.694V-10.37H6.2a5.16,5.16,0,0,1-3.655-1.251A4.372,4.372,0,0,1,1.2-14.988a4.221,4.221,0,0,1,1.347-3.319,5.288,5.288,0,0,1,3.655-1.2H9.473v-6.06H6.2a5.16,5.16,0,0,1-3.655-1.25A4.372,4.372,0,0,1,1.2-30.186,4.221,4.221,0,0,1,2.547-33.5a5.288,5.288,0,0,1,3.655-1.2H9.473V-50a7.349,7.349,0,0,1,1.78-5.194A6.537,6.537,0,0,1,16.3-57.12a7.466,7.466,0,0,1,4.473,1.347,8.767,8.767,0,0,1,2.934,4.521L34.964-20.278V-50.387a6.84,6.84,0,0,1,1.731-4.906,6.183,6.183,0,0,1,4.713-1.828,6.061,6.061,0,0,1,4.617,1.828,6.84,6.84,0,0,1,1.731,4.906v15.679h3.367a5.288,5.288,0,0,1,3.655,1.2,4.221,4.221,0,0,1,1.347,3.319,4.372,4.372,0,0,1-1.347,3.367,5.16,5.16,0,0,1-3.655,1.25H47.757v6.06h3.367a5.288,5.288,0,0,1,3.655,1.2,4.221,4.221,0,0,1,1.347,3.319,4.372,4.372,0,0,1-1.347,3.367,5.16,5.16,0,0,1-3.655,1.251H47.757V5.309A7.475,7.475,0,0,1,46.026,10.5a6.26,6.26,0,0,1-4.906,1.924A7.847,7.847,0,0,1,36.5,11.08a8.623,8.623,0,0,1-2.982-4.521L22.266-24.318V5.694A6.958,6.958,0,0,1,20.583,10.6,6.15,6.15,0,0,1,15.821,12.427Z" transform="translate(120.864 101.646)" fill="#fff" stroke="rgba(0,0,0,0)" stroke-width="1"/>
            </g>
          </g>
        </g>
        <text id="Vighosure" transform="translate(370 1992)" fill="#fff" font-size="40" font-family="Montserrat-ExtraBold, Montserrat" font-weight="800"><tspan x="0" y="39">Vighosure</tspan></text>
        <text id="Access_credit_facility_for_daily_food_purchase._2" data-name="Access credit facility for daily food purchase. " transform="translate(370 2065)" fill="#fff" font-size="40" font-family="Montserrat-ExtraBold, Montserrat" font-weight="800" opacity="0.67"><tspan x="0" y="39">Access credit </tspan><tspan x="0" y="88">facility for daily </tspan><tspan x="0" y="137">food purchase. </tspan></text>
      </g>
    </g>
    <g id="Group_55147" data-name="Group 55147" transform="translate(0 -30)">
      <g id="Group_6418" data-name="Group 6418" transform="translate(0 82)">
        <rect id="Rectangle_11481-3" data-name="Rectangle 11481" width="534" height="673" rx="47" transform="translate(320 1942)" fill="#15a05d"/>
        <g id="Mask_Group_28-3" data-name="Mask Group 28" transform="translate(-75.5 -23.5)" clip-path="url(#clip-path)">
          <g id="savings" transform="matrix(0.966, 0.259, -0.259, 0.966, 635.341, 2258.853)" opacity="0.2">
            <g id="Group_55144" data-name="Group 55144" transform="translate(5.941 2.5)">
              <path id="Path_200931" data-name="Path 200931" d="M66.293,53.209a100.445,100.445,0,0,0,133.1,0A100.735,100.735,0,0,0,32,128.841v12.605" transform="translate(135.392 135.87)" fill="none" stroke="#fff" stroke-linecap="round" stroke-linejoin="round" stroke-width="14"/>
              <circle id="Ellipse_2538" data-name="Ellipse 2538" cx="75.632" cy="75.632" r="75.632" transform="translate(91.76)" fill="none" stroke="#fff" stroke-linecap="round" stroke-linejoin="round" stroke-width="14"/>
              <path id="Path_200932" data-name="Path 200932" d="M20,46H171.263L158.658,146.842H32.605Z" transform="translate(71.76 231.316)" fill="none" stroke="#fff" stroke-linecap="round" stroke-linejoin="round" stroke-width="14"/>
              <path id="Path_200933" data-name="Path 200933" d="M172.833,141.446V128.841A100.735,100.735,0,0,0,5.441,53.209a100.445,100.445,0,0,0,133.1,0" transform="translate(-5.441 135.87)" fill="none" stroke="#fff" stroke-linecap="round" stroke-linejoin="round" stroke-width="14"/>
              <rect id="Rectangle_12499" data-name="Rectangle 12499" width="44.566" height="44.566" transform="translate(135.875 75.632) rotate(-45)" fill="none" stroke="#fff" stroke-linecap="round" stroke-linejoin="round" stroke-width="14"/>
            </g>
          </g>
        </g>
        <text id="Vighopay" transform="translate(370 1992)" fill="#fff" font-size="40" font-family="Montserrat-ExtraBold, Montserrat" font-weight="800"><tspan x="0" y="39">Vighopay</tspan></text>
        <text id="Fastest_way_to_send_receive_funds." data-name="Fastest way to send &amp; receive funds." transform="translate(370 2065)" fill="#fff" font-size="40" font-family="Montserrat-ExtraBold, Montserrat" font-weight="800" opacity="0.67"><tspan x="0" y="39">Fastest way to </tspan><tspan x="0" y="88">send &amp; receive </tspan><tspan x="0" y="137">funds.</tspan></text>
      </g>
      <g id="Group_55146" data-name="Group 55146" transform="translate(0 855)">
        <rect id="Rectangle_11481-4" data-name="Rectangle 11481" width="534" height="673" rx="47" transform="translate(320 1942)" fill="#111"/>
        <g id="Mask_Group_28-4" data-name="Mask Group 28" transform="translate(-75.5 -23.5)" clip-path="url(#clip-path)">
          <g id="cards" transform="translate(538.103 2452.818) rotate(-30)" opacity="0.1">
            <g id="Group_55156" data-name="Group 55156" transform="translate(1.667 3)">
              <g id="Group_55155" data-name="Group 55155">
                <path id="Path_200934" data-name="Path 200934" d="M285.917,150.915H13.677a12.011,12.011,0,1,1,0-24.021h272.24a12.011,12.011,0,1,1,0,24.021ZM225.384,285.272H74.211c-54.928,0-72.544-17.455-72.544-71.743V101.59c0-43.078,9.769-68.54,59.413-71.423,4.164-.16,8.488-.321,13.132-.321H225.384c54.929,0,72.544,17.456,72.544,71.743v114.5c-.641,52.366-18.256,69.181-72.544,69.181ZM74.211,53.868c-4.324,0-8.327.16-12.011.321-28.665,1.761-36.513,7.847-36.513,47.4V213.529c0,41,6.726,47.722,48.523,47.722H225.384c41.316,0,48.042-6.406,48.523-45.32V101.59c0-41-6.726-47.722-48.523-47.722H74.211ZM285.917,228.1a11.636,11.636,0,0,1-8.167-3.2,12.113,12.113,0,0,1-3.843-8.808v-114.5c0-41-6.726-47.722-48.523-47.722H74.211c-4.324,0-8.327.16-12.011.32a12.188,12.188,0,0,1-8.809-3.363,11.966,11.966,0,0,1-3.683-8.808C50.35-10.185,67.965-27,122.253-27H273.426c54.928,0,72.544,17.455,72.544,71.743V156.682c0,43.078-9.769,68.54-59.412,71.423h-.641ZM74.211,29.85H225.384c54.929,0,72.544,17.455,72.544,71.743V202.8c18.576-3.363,24.021-12.971,24.021-46.121V44.744c0-41-6.726-47.722-48.523-47.722H122.253c-36.512,0-45.96,4.965-48.042,32.829Zm18.9,204.342H65.567a12.011,12.011,0,1,1,0-24.021H93.111a12.011,12.011,0,1,1,0,24.021Zm89.5,0H127.527a12.011,12.011,0,1,1,0-24.021h55.089a12.011,12.011,0,1,1,0,24.021Z" transform="translate(-1.667 27)" fill="#f2d473"/>
              </g>
            </g>
          </g>
        </g>
        <text id="Vighocard" transform="translate(370 1992)" fill="#fff" font-size="40" font-family="Montserrat-ExtraBold, Montserrat" font-weight="800"><tspan x="0" y="39">Vighocard</tspan></text>
        <text id="Use_Vighocard_enjoy_goodies_" data-name="Use Vighocard &amp; enjoy goodies…" transform="translate(370 2065)" fill="#fff" font-size="40" font-family="Montserrat-ExtraBold, Montserrat" font-weight="800" opacity="0.67"><tspan x="0" y="39">Use Vighocard &amp; </tspan><tspan x="0" y="88">enjoy goodies…</tspan></text>
      </g>
    </g>
  </g>
</svg>
