<svg xmlns="http://www.w3.org/2000/svg" width="60" height="60" viewBox="0 0 60 60">
  <g id="Group_3286" data-name="Group 3286" transform="translate(-0.001)">
    <rect id="Rectangle_12051" data-name="Rectangle 12051" width="60" height="60" rx="30" transform="translate(0.001)" fill="#15a05d"/>
    <path id="twitter" d="M8.772,17.885A15.742,15.742,0,0,0,24.9,2.292q0-.356-.016-.708a11.331,11.331,0,0,0,2.828-2.838,11.615,11.615,0,0,1-3.255.863A5.538,5.538,0,0,0,26.95-3.423a11.609,11.609,0,0,1-3.6,1.33,5.755,5.755,0,0,0-4.138-1.731,5.578,5.578,0,0,0-5.669,5.48,5.3,5.3,0,0,0,.147,1.25A16.285,16.285,0,0,1,2-2.821,5.329,5.329,0,0,0,1.237-.066,5.431,5.431,0,0,0,3.76,4.5,5.773,5.773,0,0,1,1.193,3.81c0,.023,0,.045,0,.07A5.532,5.532,0,0,0,5.74,9.253a5.873,5.873,0,0,1-1.495.193,5.821,5.821,0,0,1-1.066-.1,5.654,5.654,0,0,0,5.3,3.807A11.623,11.623,0,0,1,1.434,15.5a11.928,11.928,0,0,1-1.352-.076,16.45,16.45,0,0,0,8.69,2.462" transform="translate(16.103 22.969)" fill="#ededed"/>
  </g>
</svg>
